# xmcd
#
# Track frame offsets: 
#        150
#        16810
#        31259
#        47954
#        69438
#        82197
#        99034
#        115840
#        134103
#        153122
#        169244
#        187347
#        203694
#        218589
#        242303
#        260453
#
# Disc length: 3741 seconds
#
# Revision: 3
# Processed by: cddbd v1.5.2PL0 Copyright (c) Steve Scherf et al.
# Submitted via: ExactAudioCopy v0.99pb5
#
DISCID=d50e9b10
DTITLE=Various Artist - Pure... Urban - CD 2
DYEAR=2014
DGENRE=Pop
TTITLE0=Ciara feat. Justin Timberlake - Love sex magic
TTITLE1=Kelly Rowland - Work
TTITLE2=Natasha Bedingfield feat. Sean Kingston - Love like this
TTITLE3=Bow Wow and Omarion - Girlfriend
TTITLE4=Jamie Foxx - Hit it like this
TTITLE5=Amerie - Take control
TTITLE6=Jennifer Lopez - Love don't cost a thing
TTITLE7=Blu Cantrell - Hit 'em up style (oops!)
TTITLE8=Allure - Head over heels
TTITLE9=Chipmunk feat. Keri Hilson - In the air
TTITLE10=Jordin Sparks - Battlefield
TTITLE11=Mario - How do I breathe
TTITLE12=Eamon - All over love
TTITLE13=Tatyana Ali - Everytime
TTITLE14=B2K - Why I love you
TTITLE15=Toni Braxton - Un-break my heart
EXTD=YEAR: 2014
EXTT0=
EXTT1=
EXTT2=
EXTT3=
EXTT4=
EXTT5=
EXTT6=
EXTT7=
EXTT8=
EXTT9=
EXTT10=
EXTT11=
EXTT12=
EXTT13=
EXTT14=
EXTT15=
PLAYORDER=
